<svg width="126" height="126" viewBox="0 0 126 126" fill="none" xmlns="http://www.w3.org/2000/svg">
<path d="M86.625 47.25C86.625 60.2977 76.0477 70.875 63 70.875C49.9523 70.875 39.375 60.2977 39.375 47.25C39.375 34.2023 49.9523 23.625 63 23.625C76.0477 23.625 86.625 34.2023 86.625 47.25Z" fill="#F8F8F7"/>
<path fill-rule="evenodd" clip-rule="evenodd" d="M0 63C0 28.2061 28.2061 0 63 0C97.7939 0 126 28.2061 126 63C126 97.7939 97.7939 126 63 126C28.2061 126 0 97.7939 0 63ZM63 7.875C32.5553 7.875 7.875 32.5553 7.875 63C7.875 76.0208 12.3894 87.9871 19.9384 97.4193C25.5381 88.3988 37.8365 78.75 63 78.75C88.1636 78.75 100.462 88.3988 106.062 97.4193C113.611 87.9871 118.125 76.0207 118.125 63C118.125 32.5553 93.4447 7.875 63 7.875Z" fill="#F8F8F7"/>
</svg>
